<svg width="32" height="34" viewBox="0 0 32 34" fill="none" xmlns="http://www.w3.org/2000/svg">
<path d="M13.9825 23.6351C12.3182 12.3549 7.35959 17.222 5.08831 21.0656C4.04085 17.2358 1.58718 18.9708 1.16635 20.4622C0.467527 22.9388 2.07537 26.0259 4.0324 26.1189C7.12126 26.2658 8.63319 23.7808 8.70861 22.3478C8.02023 27.3036 9.38259 36.0132 20.3391 31.2052C31.2957 26.3973 31.5692 17.6059 30.3364 13.8111C31.6655 10.4402 32.7635 3.16665 26.5224 1.04006C18.7211 -1.61817 11.671 8.55246 19.6457 15.198C20.0117 15.4292 21.206 15.88 23.0552 15.8337M25.2637 19.4819C23.089 21.232 17.908 24.2072 14.581 22.1071C11.2541 20.0069 14.9623 16.1896 17.2322 14.5435C18.1852 13.9803 19.743 13.956 18.3499 18.3643M24.5159 7.61391C25.1133 7.67365 26.3082 8.06 26.3082 9.12742C26.3082 10.1948 25.3258 10.5546 24.8345 10.6011" stroke="#F48B88" stroke-linejoin="round"/>
</svg>
